<?xml version="1.0" encoding="UTF-8"?>
<svg id="katman_1" data-name="katman 1" xmlns="http://www.w3.org/2000/svg" viewBox="0 0 243.95 377.57">
  <defs>
    <style>
      .cls-1 {
        fill: #da70d6;
      }
    </style>
  </defs>
  <rect class="cls-1" x="78.79" y="334.29" width="43.29" height="43.29" rx="2.47" ry="2.47"/>
  <path class="cls-1" d="M243.95,123.68C243.95,55.85,189.35.78,121.7.02c-.26,0-.52-.01-.78-.02-.07,0-.14,0-.21,0-.14,0-.28,0-.43,0-.38,0-.75.02-1.12.02-1.34,0-2.67.03-3.99.09-.3.01-.59.03-.89.04-1.55.07-3.1.17-4.64.3-.1,0-.19.02-.29.03C63.37,4.43,24.59,33.51,6.81,73.93l-.99,2.91c-1.86,4.55-3.46,9.23-4.78,14.03l-1.03,3.03,40.39,40.39,35.16,35.16c.97.97,2.53.97,3.5,0l27.11-27.11c.97-.97.97-2.53,0-3.5l-55.45-55.45c13.85-23.87,39.62-39.97,69.18-40.11.34,0,.68,0,1.01,0,.66,0,1.32.03,1.98.05.93.03,1.87.07,2.79.13.21.01.43.03.64.05,40.71,3.17,73.26,37.16,74.12,78.42.93,44.51-34.33,80.96-78.36,82.05v.04h-40.81c-1.37,0-2.47,1.11-2.47,2.47v116.72c0,1.37,1.11,2.47,2.47,2.47h38.34c1.37,0,2.47-1.11,2.47-2.47v-75.9c53.73-.86,99.13-35.98,115.32-84.48h.22c4.11-12.31,6.34-25.48,6.34-39.18Z"/>
</svg>